<svg xmlns="http://www.w3.org/2000/svg" width="900" height="600">
  <!-- Bayrak arka planı kırmızı -->
  <rect width="900" height="600" fill="#E30A17"/>
  <!-- Beyaz çerçeve -->
  <rect width="540" height="360" fill="#FFFFFF" x="180" y="120"/>
  <!-- Hilal -->
  <path fill="#FFFFFF" d="M381.7,303.7c0-23.9-19.4-43.3-43.3-43.3c-8.9,0-17.2,2.6-24.1,7.1c-5.2,3.4-9.8,7.9-13.2,13.3 c-3.5-5.4-7.9-9.9-13.2-13.3c-6.9-4.5-15.2-7.1-24.1-7.1c-23.9,0-43.3,19.4-43.3,43.3c0,7.8,1.9,15.1,5.3,21.5 c2.7,5.2,6.4,9.8,10.7,13.7l0,0l54.9,54.9l54.9-54.9c4.3-3.9,7.9-8.5,10.7-13.7C379.8,318.8,381.7,311.5,381.7,303.7z"/>
</svg>
